# xmcd
#
# Track frame offsets:
#	150
#	9563
#	22388
#	33520
#	45758
#	55468
#	66963
#	80178
#	90550
#	103888
#	117695
#	130320
#	142080
#	155888
#	167010
#	177825
#	187758
#	199678
#	211243
#	224790
#
# Disc length: 3137 seconds
#
# Revision: 3
# Processed by: cddbd v1.5.1PL0 Copyright (c) Steve Scherf et al.
# Submitted via: audiograbber 1.83.01
#
DISCID=330c3f14
DTITLE=Lefty Frizzell - Lefty's 20 Golden Hits
DYEAR=1992
DGENRE=Country
TTITLE0=If You've Got The Money, I've Got The Time
TTITLE1=I Love You A Thousand Ways
TTITLE2=Look What Thoughts Will Do
TTITLE3=I Want To Be With You Always
TTITLE4=Always Late (With Your Kisses)
TTITLE5=Mom And Dad's Waltz
TTITLE6=Travelin' Blues
TTITLE7=Give Me More, More, More Of Your Kisses
TTITLE8=Don't Stay Away
TTITLE9=Saginaw, Michigan
TTITLE10=Release Me (And Let Me Love Again)
TTITLE11=Cigarettes And Coffee Blues
TTITLE12=The Long Black Veil
TTITLE13=Forever (And Always)
TTITLE14=She's Gone, Gone, Gone
TTITLE15=Watermelon Time In Georgia
TTITLE16=The Waltz Of The Angels
TTITLE17=Signed, Sealed And Delivered
TTITLE18=California Blues (Blue Yodel #4)
TTITLE19=How Long Will It Take (To Stop Lovin' You)
EXTD=1992 Sony Music
EXTT0=
EXTT1=
EXTT2=
EXTT3=
EXTT4=
EXTT5=
EXTT6=
EXTT7=
EXTT8=
EXTT9=
EXTT10=
EXTT11=
EXTT12=
EXTT13=
EXTT14=
EXTT15=
EXTT16=
EXTT17=
EXTT18=
EXTT19=
PLAYORDER=
